<?xml version="1.0" encoding="utf-8"?>
<!-- Generator: Adobe Illustrator 16.0.0, SVG Export Plug-In . SVG Version: 6.00 Build 0)  -->
<!DOCTYPE svg PUBLIC "-//W3C//DTD SVG 1.1//EN" "http://www.w3.org/Graphics/SVG/1.1/DTD/svg11.dtd">
<svg version="1.1" id="Layer_1" xmlns="http://www.w3.org/2000/svg" xmlns:xlink="http://www.w3.org/1999/xlink" x="0px" y="0px"
	 width="140.508px" height="31.977px" viewBox="40.833 9.963 140.508 31.977" enable-background="new 40.833 9.963 140.508 31.977"
	 xml:space="preserve">
<g>
	<g>
		<path fill="#FFFFFF" d="M89.777,32.861h-1.57c-0.174,0-0.316-0.144-0.316-0.317v-4.847h-4.5v4.847
			c0,0.174-0.141,0.317-0.317,0.317h-1.568c-0.176,0-0.317-0.144-0.317-0.317V21.39c0-0.173,0.141-0.299,0.317-0.299h1.568
			c0.176,0,0.317,0.126,0.317,0.299v4.373h4.5V21.39c0-0.173,0.143-0.299,0.316-0.299h1.57c0.173,0,0.316,0.126,0.316,0.299v11.154
			C90.093,32.717,89.95,32.861,89.777,32.861z"/>
		<path fill="#FFFFFF" d="M99.914,32.861h-3.517c-2.554,0-4.324-0.952-4.324-4.325V21.39c0-0.173,0.142-0.3,0.318-0.3h1.566
			c0.176,0,0.316,0.126,0.316,0.3v6.972c0,1.805,0.412,2.502,2.123,2.502h2.187V21.39c0-0.173,0.128-0.3,0.3-0.3h1.569
			c0.175,0,0.317,0.126,0.317,0.3v10.503C100.77,32.559,100.49,32.861,99.914,32.861z"/>
		<path fill="#FFFFFF" d="M119.695,22.928h-2.771v9.616c0,0.174-0.144,0.317-0.32,0.317h-1.566c-0.176,0-0.315-0.144-0.315-0.317
			v-9.616h-2.774c-0.173,0-0.315-0.111-0.315-0.286V21.39c0-0.173,0.142-0.3,0.315-0.3l7.749,0c0.173,0,0.314,0.126,0.314,0.299
			v1.252C120.01,22.816,119.869,22.928,119.695,22.928z"/>
		<path fill="#FFFFFF" d="M123.247,32.861h-1.57c-0.175,0-0.317-0.144-0.317-0.317V21.39c0-0.173,0.143-0.299,0.317-0.299h1.57
			c0.173,0,0.315,0.126,0.315,0.299v11.154C123.562,32.717,123.42,32.861,123.247,32.861z"/>
		<path fill="#FFFFFF" d="M133.161,32.861h-3.656c-1.709,0-4.043-0.998-4.043-4.737v-2.28c0-3.757,2.403-4.753,4.291-4.753h3.408
			c0.207,0,0.3,0.126,0.3,0.332v1.22c0,0.238-0.078,0.333-0.366,0.333h-3.251c-1.063,0-2.166,0.618-2.166,2.869v2.2
			c0,1.987,0.719,2.978,2.632,2.978c0.318,0,0.636-0.009,0.998-0.03v-3.977c0-0.174,0.129-0.317,0.302-0.317h1.535
			c0.171,0,0.316,0.143,0.316,0.317v5.466C133.461,32.684,133.37,32.861,133.161,32.861z"/>
		<path fill="#FFFFFF" d="M170.965,32.86h-3.114c-2.061,0.001-3.552-0.427-3.552-3.12v-5.53c0-2.692,1.491-3.12,3.552-3.119h3.114
			c0.241,0,0.316,0.11,0.316,0.332v1.22c0,0.175-0.141,0.318-0.316,0.318h-3.231c-0.915,0-1.252,0.315-1.252,1.362v1.552h4.296
			c0.172,0,0.316,0.143,0.316,0.316v1.237c0,0.173-0.145,0.316-0.316,0.316h-4.296v1.885c0,1.044,0.337,1.361,1.252,1.361h3.231
			c0.176,0,0.316,0.142,0.316,0.317v1.22C171.282,32.749,171.207,32.86,170.965,32.86z"/>
		<path fill="#FFFFFF" d="M108.736,24.576c0-1.188-0.788-1.602-2.375-1.602h-1.41v3.5h1.41c1.632,0,2.375-0.396,2.375-1.791V24.576z
			 M111.117,32.861h-1.935c-0.175,0-0.233-0.16-0.317-0.317l-2.182-4.294h-1.731v4.294c0,0.174-0.126,0.317-0.301,0.317h-1.582
			c-0.176,0-0.319-0.144-0.319-0.317v-10.98c0-0.315,0.186-0.474,0.506-0.474h3.106c2.439,0,4.563,0.744,4.563,3.453v0.142
			c0,1.68-0.84,2.726-2.139,3.231l2.49,4.627C111.357,32.698,111.287,32.861,111.117,32.861z"/>
		<path fill="#FFFFFF" d="M141.278,24.576c0-1.189-0.793-1.602-2.378-1.602h-1.408v3.5h1.408c1.634,0,2.378-0.396,2.378-1.791
			V24.576z M143.656,32.861h-1.933c-0.174,0-0.234-0.16-0.316-0.318l-2.183-4.293h-1.733v4.293c0,0.175-0.126,0.318-0.302,0.318
			h-1.582c-0.175,0-0.317-0.144-0.317-0.318V21.563c0-0.315,0.185-0.474,0.507-0.474h3.104c2.438,0,4.563,0.744,4.563,3.453v0.142
			c0,1.68-0.841,2.726-2.14,3.231l2.49,4.627C143.897,32.698,143.828,32.861,143.656,32.861z"/>
		<path fill="#FFFFFF" d="M146.017,32.861h3.516c2.55,0,4.324-0.952,4.324-4.326V21.39c0-0.173-0.144-0.3-0.317-0.3h-1.568
			c-0.173,0-0.317,0.126-0.317,0.3v6.972c0,1.805-0.411,2.502-2.121,2.502h-2.188V21.39c0-0.173-0.125-0.3-0.301-0.3h-1.567
			c-0.174,0-0.316,0.126-0.316,0.3v10.503C145.16,32.559,145.436,32.861,146.017,32.861z"/>
		<path fill="#FFFFFF" d="M163.109,22.928h-2.773v9.615c0,0.175-0.146,0.318-0.317,0.318h-1.568c-0.174,0-0.317-0.144-0.317-0.318
			v-9.615h-2.772c-0.171,0-0.316-0.112-0.316-0.287v-1.252c0-0.173,0.146-0.299,0.316-0.299h7.749c0.172,0,0.314,0.126,0.314,0.299
			v1.252C163.423,22.816,163.281,22.928,163.109,22.928z"/>
		<path fill="#FFFFFF" d="M173.499,21.09l3.58,0c2.553,0,4.263,0.95,4.263,4.324v7.144c0,0.176-0.146,0.304-0.316,0.304h-1.569
			c-0.174,0-0.318-0.128-0.318-0.304v-6.969c0-1.807-0.516-2.501-2.227-2.501h-2.082v9.471c0,0.176-0.127,0.304-0.299,0.304
			l-1.572-0.001c-0.173,0-0.313-0.127-0.313-0.303V22.053C172.645,21.39,172.922,21.09,173.499,21.09z"/>
	</g>
</g>
<g>
	<g>
		<path fill="#EC2F27" d="M62.508,38.746c-5.066,0-8.104-2.694-11.94-2.694c-1.666,0-3.233,0.426-4.597,1.173
			c2.894,2.913,6.905,4.716,11.338,4.716c5.172,0,9.024-2.326,11.535-4.941l-0.024,0.018C66.969,38.116,64.813,38.746,62.508,38.746
			z"/>
		<path fill="#EC2F27" d="M64.072,37.298c3.532,0,6.577-2.096,7.958-5.11L71.99,32.29c0.84-1.943,1.311-4.088,1.311-6.339
			c0-8.831-7.162-15.988-15.993-15.988c-8.83,0-15.991,7.157-15.991,15.988c0,3.031,0.845,5.863,2.309,8.276
			c1.586-0.917,3.439-1.449,5.405-1.449C55.1,32.78,58.747,37.298,64.072,37.298z"/>
		<g>
			<rect x="61.493" y="15.35" fill="#FFFFFF" width="4.098" height="17.511"/>
		</g>
		<path fill="#FFFFFF" d="M63.12,37.901"/>
		<path fill="#FFFFFF" d="M49.031,32.78c-1.965,0-3.818,0.531-5.405,1.447c0.663,1.092,1.449,2.098,2.345,2.997
			c1.363-0.747,2.931-1.173,4.596-1.173c3.836,0,6.875,2.694,11.94,2.694c2.306,0,4.462-0.63,6.312-1.729l0.024-0.018
			c0.996-1.036,1.782-2.119,2.354-3.121c0.295-0.512,0.556-1.041,0.793-1.587l0.039-0.103c-1.38,3.015-4.425,5.111-7.958,5.111
			c-5.294,0-8.932-4.472-14.946-4.52l0,0l12.367-10.478h-8.367V15.35h-4.094L49.031,32.78z"/>
	</g>
</g>
</svg>
